<svg t="1652084219793" class="icon" viewBox="0 0 1024 1024" version="1.1" xmlns="http://www.w3.org/2000/svg" p-id="13005" width="128" height="128"><path d="M794.574 930.64h-562.47c-24.262 0-44-19.738-44-44V142.99c0-24.262 19.738-44 44-44h344.009v64H252.104v703.65h522.471V345h64v541.64c-0.001 24.261-19.739 44-44.001 44z" fill="" p-id="13006"></path><path d="M619 301.79h220v64H619z" fill="" p-id="13007"></path><path d="M618 98.228h64v266.078h-64z" fill="" p-id="13008"></path><path d="M632.307 136.573l51.007-38.649 155.153 204.764-51.008 38.649zM916.137 779.999H110.146c-6.6 0-12-5.4-12-12V493.127c0-6.6 5.4-12 12-12h805.991c6.6 0 12 5.4 12 12v274.872c0 6.6-5.4 12-12 12z" fill="" p-id="13009"></path><path d="M266.631 551.092h47.454c52.831 0 85.559 24.867 85.559 77.998 0 52.918-32.728 79.271-83.688 79.271h-49.324V551.092z m45.35 131.978c32.26 0 52.363-15.727 52.363-53.98 0-38.467-20.104-52.92-52.363-52.92h-10.753v106.9h10.753zM436.581 629.09c0-51.219 31.559-80.973 77.376-80.973s77.376 29.967 77.376 80.973-31.559 82.246-77.376 82.246-77.376-31.24-77.376-82.246z m119.453 0c0-33.793-16.363-53.982-42.077-53.982s-42.077 20.189-42.077 53.982c0 33.578 16.363 55.043 42.077 55.043s42.077-21.465 42.077-55.043zM628.271 630.365c0-51.857 36.701-82.248 80.415-82.248 21.975 0 39.507 9.564 50.728 20.189l-18.234 19.979c-8.649-7.652-18.701-13.178-31.792-13.178-26.182 0-45.817 20.402-45.817 54.193 0 34.217 17.766 54.832 45.116 54.832 14.728 0 26.416-6.375 35.767-15.514l18.233 19.553c-14.26 15.088-32.728 23.164-55.169 23.164-43.714 0.001-79.247-28.478-79.247-80.97z" fill="#FFFFFF" p-id="13010"></path></svg>
